<svg xmlns="http://www.w3.org/2000/svg" width="1322.62" height="191.92" viewBox="0 0 1322.62 191.92"><g><g><g opacity=".2" stroke="#00bfa5" stroke-width="3"><circle cx="765.84" cy="127.01" r="5" fill="none"/><path d="M557.63 190.42l81.23-46.9a16 16 0 0 1 16 0l33.33 19.16a16 16 0 0 0 16 0L760.65 130M1167.35 190.42l-107.45-61.75M356.54 190.42l31.83-18.49a16 16 0 0 1 16.07 0l31.83 18.49M840.75 170.25l34.93 20.17" fill="none" stroke-linecap="round" stroke-linejoin="round"/><path d="M1036.58 142.38l51.94-30a16 16 0 0 1 16 0l26.91 15.54a16 16 0 0 0 16 0l119.32-68.58" fill="none"/><path d="M953.59 190.42L985.77 172a16 16 0 0 1 16.5.38l28.44 18M81.11 190.42l-62-35.8a8 8 0 0 1 0-13.85l98.6-56.93" fill="none" stroke-linecap="round" stroke-linejoin="round"/><circle cx="1031.39" cy="145.38" r="5" fill="#fff"/><circle cx="1271.93" cy="56.38" r="5" fill="none"/><circle cx="122.9" cy="80.84" r="5" fill="none"/><path fill="none" d="M116.89 164.27L11.7 103.82"/><circle cx="6.5" cy="100.83" r="5" fill="none"/><circle cx="122.09" cy="167.26" r="5" fill="#fff"/><circle cx="835.56" cy="167.26" r="5" fill="#fff"/></g></g><g><g opacity=".3" stroke="#43a047" stroke-width="3"><circle cx="1271.93" cy="6.5" r="5" fill="#fff"/><path fill="none" stroke-linecap="round" stroke-linejoin="round" d="M516.54 190.28L620.93 130M303.74 190.42l-135.14-78a16 16 0 0 0-16 0l-26.92 15.54a16 16 0 0 1-16 0l-98-56.33M1266.74 9.5l-84.37 48.71a8 8 0 0 0 0 13.86l49.84 28.78a8 8 0 0 1 0 13.85l-49.84 28.78a8 8 0 0 0 0 13.86l57.3 33.08M1277.13 126.78l30.87 17.83a8 8 0 0 1 .14 13.78L1299 164a8 8 0 0 0 .14 13.77l22 12.7"/><circle cx="626.13" cy="127.01" r="5" fill="#fff"/><circle cx="6.5" cy="68.64" r="5" fill="#fff"/><circle cx="1271.93" cy="123.78" r="5" fill="none"/><path fill="none" d="M260.65 164.91l60.45-34.9"/><circle cx="326.3" cy="127.01" r="5" fill="none"/></g></g></g></svg>